<?xml version="1.0" encoding="utf-8" standalone="no"?>
<!DOCTYPE svg PUBLIC "-//W3C//DTD SVG 1.1//EN"
  "http://www.w3.org/Graphics/SVG/1.1/DTD/svg11.dtd">
<svg xmlns:xlink="http://www.w3.org/1999/xlink" width="432pt" height="360pt" viewBox="0 0 432 360" xmlns="http://www.w3.org/2000/svg" version="1.1">
 <metadata>
  <rdf:RDF xmlns:dc="http://purl.org/dc/elements/1.1/" xmlns:cc="http://creativecommons.org/ns#" xmlns:rdf="http://www.w3.org/1999/02/22-rdf-syntax-ns#">
   <cc:Work>
    <dc:type rdf:resource="http://purl.org/dc/dcmitype/StillImage"/>
    <dc:date>2026-03-02T18:15:13.346554</dc:date>
    <dc:format>image/svg+xml</dc:format>
    <dc:creator>
     <cc:Agent>
      <dc:title>Matplotlib v3.10.7, https://matplotlib.org/</dc:title>
     </cc:Agent>
    </dc:creator>
   </cc:Work>
  </rdf:RDF>
 </metadata>
 <defs>
  <style type="text/css">*{stroke-linejoin: round; stroke-linecap: butt}</style>
 </defs>
 <g id="figure_1">
  <g id="patch_1">
   <path d="M 0 360 
L 432 360 
L 432 0 
L 0 0 
z
" style="fill: #ffffff"/>
  </g>
  <g id="axes_1">
   <g id="patch_2">
    <path d="M 47.72 314.728 
L 421.2 314.728 
L 421.2 26.88 
L 47.72 26.88 
z
" style="fill: #ffffff"/>
   </g>
   <g id="matplotlib.axis_1">
    <g id="xtick_1">
     <g id="line2d_1">
      <path d="M 91.627309 314.728 
L 91.627309 26.88 
" clip-path="url(#pe928a9823f)" style="fill: none; stroke: #b0b0b0; stroke-opacity: 0.3; stroke-width: 0.8; stroke-linecap: square"/>
     </g>
     <g id="line2d_2">
      <defs>
       <path id="mb08925ebb6" d="M 0 0 
L 0 3.5 
" style="stroke: #000000; stroke-width: 0.8"/>
      </defs>
      <g>
       <use xlink:href="#mb08925ebb6" x="91.627309" y="314.728" style="stroke: #000000; stroke-width: 0.8"/>
      </g>
     </g>
     <g id="text_1">
      <!-- $\mathdefault{10^{-16}}$ -->
      <g transform="translate(77.677309 329.326437) scale(0.1 -0.1)">
       <defs>
        <path id="DejaVuSans-31" d="M 794 531 
L 1825 531 
L 1825 4091 
L 703 3866 
L 703 4441 
L 1819 4666 
L 2450 4666 
L 2450 531 
L 3481 531 
L 3481 0 
L 794 0 
L 794 531 
z
" transform="scale(0.015625)"/>
        <path id="DejaVuSans-30" d="M 2034 4250 
Q 1547 4250 1301 3770 
Q 1056 3291 1056 2328 
Q 1056 1369 1301 889 
Q 1547 409 2034 409 
Q 2525 409 2770 889 
Q 3016 1369 3016 2328 
Q 3016 3291 2770 3770 
Q 2525 4250 2034 4250 
z
M 2034 4750 
Q 2819 4750 3233 4129 
Q 3647 3509 3647 2328 
Q 3647 1150 3233 529 
Q 2819 -91 2034 -91 
Q 1250 -91 836 529 
Q 422 1150 422 2328 
Q 422 3509 836 4129 
Q 1250 4750 2034 4750 
z
" transform="scale(0.015625)"/>
        <path id="DejaVuSans-2212" d="M 678 2272 
L 4684 2272 
L 4684 1741 
L 678 1741 
L 678 2272 
z
" transform="scale(0.015625)"/>
        <path id="DejaVuSans-36" d="M 2113 2584 
Q 1688 2584 1439 2293 
Q 1191 2003 1191 1497 
Q 1191 994 1439 701 
Q 1688 409 2113 409 
Q 2538 409 2786 701 
Q 3034 994 3034 1497 
Q 3034 2003 2786 2293 
Q 2538 2584 2113 2584 
z
M 3366 4563 
L 3366 3988 
Q 3128 4100 2886 4159 
Q 2644 4219 2406 4219 
Q 1781 4219 1451 3797 
Q 1122 3375 1075 2522 
Q 1259 2794 1537 2939 
Q 1816 3084 2150 3084 
Q 2853 3084 3261 2657 
Q 3669 2231 3669 1497 
Q 3669 778 3244 343 
Q 2819 -91 2113 -91 
Q 1303 -91 875 529 
Q 447 1150 447 2328 
Q 447 3434 972 4092 
Q 1497 4750 2381 4750 
Q 2619 4750 2861 4703 
Q 3103 4656 3366 4563 
z
" transform="scale(0.015625)"/>
       </defs>
       <use xlink:href="#DejaVuSans-31" transform="translate(0 0.765625)"/>
       <use xlink:href="#DejaVuSans-30" transform="translate(63.623047 0.765625)"/>
       <use xlink:href="#DejaVuSans-2212" transform="translate(128.203125 39.046875) scale(0.7)"/>
       <use xlink:href="#DejaVuSans-31" transform="translate(186.855469 39.046875) scale(0.7)"/>
       <use xlink:href="#DejaVuSans-36" transform="translate(231.391602 39.046875) scale(0.7)"/>
      </g>
     </g>
    </g>
    <g id="xtick_2">
     <g id="line2d_3">
      <path d="M 140.303469 314.728 
L 140.303469 26.88 
" clip-path="url(#pe928a9823f)" style="fill: none; stroke: #b0b0b0; stroke-opacity: 0.3; stroke-width: 0.8; stroke-linecap: square"/>
     </g>
     <g id="line2d_4">
      <g>
       <use xlink:href="#mb08925ebb6" x="140.303469" y="314.728" style="stroke: #000000; stroke-width: 0.8"/>
      </g>
     </g>
     <g id="text_2">
      <!-- $\mathdefault{10^{-13}}$ -->
      <g transform="translate(126.353469 329.326437) scale(0.1 -0.1)">
       <defs>
        <path id="DejaVuSans-33" d="M 2597 2516 
Q 3050 2419 3304 2112 
Q 3559 1806 3559 1356 
Q 3559 666 3084 287 
Q 2609 -91 1734 -91 
Q 1441 -91 1130 -33 
Q 819 25 488 141 
L 488 750 
Q 750 597 1062 519 
Q 1375 441 1716 441 
Q 2309 441 2620 675 
Q 2931 909 2931 1356 
Q 2931 1769 2642 2001 
Q 2353 2234 1838 2234 
L 1294 2234 
L 1294 2753 
L 1863 2753 
Q 2328 2753 2575 2939 
Q 2822 3125 2822 3475 
Q 2822 3834 2567 4026 
Q 2313 4219 1838 4219 
Q 1578 4219 1281 4162 
Q 984 4106 628 3988 
L 628 4550 
Q 988 4650 1302 4700 
Q 1616 4750 1894 4750 
Q 2613 4750 3031 4423 
Q 3450 4097 3450 3541 
Q 3450 3153 3228 2886 
Q 3006 2619 2597 2516 
z
" transform="scale(0.015625)"/>
       </defs>
       <use xlink:href="#DejaVuSans-31" transform="translate(0 0.765625)"/>
       <use xlink:href="#DejaVuSans-30" transform="translate(63.623047 0.765625)"/>
       <use xlink:href="#DejaVuSans-2212" transform="translate(128.203125 39.046875) scale(0.7)"/>
       <use xlink:href="#DejaVuSans-31" transform="translate(186.855469 39.046875) scale(0.7)"/>
       <use xlink:href="#DejaVuSans-33" transform="translate(231.391602 39.046875) scale(0.7)"/>
      </g>
     </g>
    </g>
    <g id="xtick_3">
     <g id="line2d_5">
      <path d="M 188.979628 314.728 
L 188.979628 26.88 
" clip-path="url(#pe928a9823f)" style="fill: none; stroke: #b0b0b0; stroke-opacity: 0.3; stroke-width: 0.8; stroke-linecap: square"/>
     </g>
     <g id="line2d_6">
      <g>
       <use xlink:href="#mb08925ebb6" x="188.979628" y="314.728" style="stroke: #000000; stroke-width: 0.8"/>
      </g>
     </g>
     <g id="text_3">
      <!-- $\mathdefault{10^{-10}}$ -->
      <g transform="translate(175.029628 329.326437) scale(0.1 -0.1)">
       <use xlink:href="#DejaVuSans-31" transform="translate(0 0.765625)"/>
       <use xlink:href="#DejaVuSans-30" transform="translate(63.623047 0.765625)"/>
       <use xlink:href="#DejaVuSans-2212" transform="translate(128.203125 39.046875) scale(0.7)"/>
       <use xlink:href="#DejaVuSans-31" transform="translate(186.855469 39.046875) scale(0.7)"/>
       <use xlink:href="#DejaVuSans-30" transform="translate(231.391602 39.046875) scale(0.7)"/>
      </g>
     </g>
    </g>
    <g id="xtick_4">
     <g id="line2d_7">
      <path d="M 237.655787 314.728 
L 237.655787 26.88 
" clip-path="url(#pe928a9823f)" style="fill: none; stroke: #b0b0b0; stroke-opacity: 0.3; stroke-width: 0.8; stroke-linecap: square"/>
     </g>
     <g id="line2d_8">
      <g>
       <use xlink:href="#mb08925ebb6" x="237.655787" y="314.728" style="stroke: #000000; stroke-width: 0.8"/>
      </g>
     </g>
     <g id="text_4">
      <!-- $\mathdefault{10^{-7}}$ -->
      <g transform="translate(225.905787 329.326437) scale(0.1 -0.1)">
       <defs>
        <path id="DejaVuSans-37" d="M 525 4666 
L 3525 4666 
L 3525 4397 
L 1831 0 
L 1172 0 
L 2766 4134 
L 525 4134 
L 525 4666 
z
" transform="scale(0.015625)"/>
       </defs>
       <use xlink:href="#DejaVuSans-31" transform="translate(0 0.684375)"/>
       <use xlink:href="#DejaVuSans-30" transform="translate(63.623047 0.684375)"/>
       <use xlink:href="#DejaVuSans-2212" transform="translate(128.203125 38.965625) scale(0.7)"/>
       <use xlink:href="#DejaVuSans-37" transform="translate(186.855469 38.965625) scale(0.7)"/>
      </g>
     </g>
    </g>
    <g id="xtick_5">
     <g id="line2d_9">
      <path d="M 286.331947 314.728 
L 286.331947 26.88 
" clip-path="url(#pe928a9823f)" style="fill: none; stroke: #b0b0b0; stroke-opacity: 0.3; stroke-width: 0.8; stroke-linecap: square"/>
     </g>
     <g id="line2d_10">
      <g>
       <use xlink:href="#mb08925ebb6" x="286.331947" y="314.728" style="stroke: #000000; stroke-width: 0.8"/>
      </g>
     </g>
     <g id="text_5">
      <!-- $\mathdefault{10^{-4}}$ -->
      <g transform="translate(274.581947 329.326437) scale(0.1 -0.1)">
       <defs>
        <path id="DejaVuSans-34" d="M 2419 4116 
L 825 1625 
L 2419 1625 
L 2419 4116 
z
M 2253 4666 
L 3047 4666 
L 3047 1625 
L 3713 1625 
L 3713 1100 
L 3047 1100 
L 3047 0 
L 2419 0 
L 2419 1100 
L 313 1100 
L 313 1709 
L 2253 4666 
z
" transform="scale(0.015625)"/>
       </defs>
       <use xlink:href="#DejaVuSans-31" transform="translate(0 0.684375)"/>
       <use xlink:href="#DejaVuSans-30" transform="translate(63.623047 0.684375)"/>
       <use xlink:href="#DejaVuSans-2212" transform="translate(128.203125 38.965625) scale(0.7)"/>
       <use xlink:href="#DejaVuSans-34" transform="translate(186.855469 38.965625) scale(0.7)"/>
      </g>
     </g>
    </g>
    <g id="xtick_6">
     <g id="line2d_11">
      <path d="M 335.008106 314.728 
L 335.008106 26.88 
" clip-path="url(#pe928a9823f)" style="fill: none; stroke: #b0b0b0; stroke-opacity: 0.3; stroke-width: 0.8; stroke-linecap: square"/>
     </g>
     <g id="line2d_12">
      <g>
       <use xlink:href="#mb08925ebb6" x="335.008106" y="314.728" style="stroke: #000000; stroke-width: 0.8"/>
      </g>
     </g>
     <g id="text_6">
      <!-- $\mathdefault{10^{-1}}$ -->
      <g transform="translate(323.258106 329.326437) scale(0.1 -0.1)">
       <use xlink:href="#DejaVuSans-31" transform="translate(0 0.684375)"/>
       <use xlink:href="#DejaVuSans-30" transform="translate(63.623047 0.684375)"/>
       <use xlink:href="#DejaVuSans-2212" transform="translate(128.203125 38.965625) scale(0.7)"/>
       <use xlink:href="#DejaVuSans-31" transform="translate(186.855469 38.965625) scale(0.7)"/>
      </g>
     </g>
    </g>
    <g id="xtick_7">
     <g id="line2d_13">
      <path d="M 383.684266 314.728 
L 383.684266 26.88 
" clip-path="url(#pe928a9823f)" style="fill: none; stroke: #b0b0b0; stroke-opacity: 0.3; stroke-width: 0.8; stroke-linecap: square"/>
     </g>
     <g id="line2d_14">
      <g>
       <use xlink:href="#mb08925ebb6" x="383.684266" y="314.728" style="stroke: #000000; stroke-width: 0.8"/>
      </g>
     </g>
     <g id="text_7">
      <!-- $\mathdefault{10^{2}}$ -->
      <g transform="translate(374.884266 329.326437) scale(0.1 -0.1)">
       <defs>
        <path id="DejaVuSans-32" d="M 1228 531 
L 3431 531 
L 3431 0 
L 469 0 
L 469 531 
Q 828 903 1448 1529 
Q 2069 2156 2228 2338 
Q 2531 2678 2651 2914 
Q 2772 3150 2772 3378 
Q 2772 3750 2511 3984 
Q 2250 4219 1831 4219 
Q 1534 4219 1204 4116 
Q 875 4013 500 3803 
L 500 4441 
Q 881 4594 1212 4672 
Q 1544 4750 1819 4750 
Q 2544 4750 2975 4387 
Q 3406 4025 3406 3419 
Q 3406 3131 3298 2873 
Q 3191 2616 2906 2266 
Q 2828 2175 2409 1742 
Q 1991 1309 1228 531 
z
" transform="scale(0.015625)"/>
       </defs>
       <use xlink:href="#DejaVuSans-31" transform="translate(0 0.765625)"/>
       <use xlink:href="#DejaVuSans-30" transform="translate(63.623047 0.765625)"/>
       <use xlink:href="#DejaVuSans-32" transform="translate(128.203125 39.046875) scale(0.7)"/>
      </g>
     </g>
    </g>
    <g id="text_8">
     <!-- Absolute Coefficient Value -->
     <g transform="translate(168.817031 343.004562) scale(0.1 -0.1)">
      <defs>
       <path id="DejaVuSans-41" d="M 2188 4044 
L 1331 1722 
L 3047 1722 
L 2188 4044 
z
M 1831 4666 
L 2547 4666 
L 4325 0 
L 3669 0 
L 3244 1197 
L 1141 1197 
L 716 0 
L 50 0 
L 1831 4666 
z
" transform="scale(0.015625)"/>
       <path id="DejaVuSans-62" d="M 3116 1747 
Q 3116 2381 2855 2742 
Q 2594 3103 2138 3103 
Q 1681 3103 1420 2742 
Q 1159 2381 1159 1747 
Q 1159 1113 1420 752 
Q 1681 391 2138 391 
Q 2594 391 2855 752 
Q 3116 1113 3116 1747 
z
M 1159 2969 
Q 1341 3281 1617 3432 
Q 1894 3584 2278 3584 
Q 2916 3584 3314 3078 
Q 3713 2572 3713 1747 
Q 3713 922 3314 415 
Q 2916 -91 2278 -91 
Q 1894 -91 1617 61 
Q 1341 213 1159 525 
L 1159 0 
L 581 0 
L 581 4863 
L 1159 4863 
L 1159 2969 
z
" transform="scale(0.015625)"/>
       <path id="DejaVuSans-73" d="M 2834 3397 
L 2834 2853 
Q 2591 2978 2328 3040 
Q 2066 3103 1784 3103 
Q 1356 3103 1142 2972 
Q 928 2841 928 2578 
Q 928 2378 1081 2264 
Q 1234 2150 1697 2047 
L 1894 2003 
Q 2506 1872 2764 1633 
Q 3022 1394 3022 966 
Q 3022 478 2636 193 
Q 2250 -91 1575 -91 
Q 1294 -91 989 -36 
Q 684 19 347 128 
L 347 722 
Q 666 556 975 473 
Q 1284 391 1588 391 
Q 1994 391 2212 530 
Q 2431 669 2431 922 
Q 2431 1156 2273 1281 
Q 2116 1406 1581 1522 
L 1381 1569 
Q 847 1681 609 1914 
Q 372 2147 372 2553 
Q 372 3047 722 3315 
Q 1072 3584 1716 3584 
Q 2034 3584 2315 3537 
Q 2597 3491 2834 3397 
z
" transform="scale(0.015625)"/>
       <path id="DejaVuSans-6f" d="M 1959 3097 
Q 1497 3097 1228 2736 
Q 959 2375 959 1747 
Q 959 1119 1226 758 
Q 1494 397 1959 397 
Q 2419 397 2687 759 
Q 2956 1122 2956 1747 
Q 2956 2369 2687 2733 
Q 2419 3097 1959 3097 
z
M 1959 3584 
Q 2709 3584 3137 3096 
Q 3566 2609 3566 1747 
Q 3566 888 3137 398 
Q 2709 -91 1959 -91 
Q 1206 -91 779 398 
Q 353 888 353 1747 
Q 353 2609 779 3096 
Q 1206 3584 1959 3584 
z
" transform="scale(0.015625)"/>
       <path id="DejaVuSans-6c" d="M 603 4863 
L 1178 4863 
L 1178 0 
L 603 0 
L 603 4863 
z
" transform="scale(0.015625)"/>
       <path id="DejaVuSans-75" d="M 544 1381 
L 544 3500 
L 1119 3500 
L 1119 1403 
Q 1119 906 1312 657 
Q 1506 409 1894 409 
Q 2359 409 2629 706 
Q 2900 1003 2900 1516 
L 2900 3500 
L 3475 3500 
L 3475 0 
L 2900 0 
L 2900 538 
Q 2691 219 2414 64 
Q 2138 -91 1772 -91 
Q 1169 -91 856 284 
Q 544 659 544 1381 
z
M 1991 3584 
L 1991 3584 
z
" transform="scale(0.015625)"/>
       <path id="DejaVuSans-74" d="M 1172 4494 
L 1172 3500 
L 2356 3500 
L 2356 3053 
L 1172 3053 
L 1172 1153 
Q 1172 725 1289 603 
Q 1406 481 1766 481 
L 2356 481 
L 2356 0 
L 1766 0 
Q 1100 0 847 248 
Q 594 497 594 1153 
L 594 3053 
L 172 3053 
L 172 3500 
L 594 3500 
L 594 4494 
L 1172 4494 
z
" transform="scale(0.015625)"/>
       <path id="DejaVuSans-65" d="M 3597 1894 
L 3597 1613 
L 953 1613 
Q 991 1019 1311 708 
Q 1631 397 2203 397 
Q 2534 397 2845 478 
Q 3156 559 3463 722 
L 3463 178 
Q 3153 47 2828 -22 
Q 2503 -91 2169 -91 
Q 1331 -91 842 396 
Q 353 884 353 1716 
Q 353 2575 817 3079 
Q 1281 3584 2069 3584 
Q 2775 3584 3186 3129 
Q 3597 2675 3597 1894 
z
M 3022 2063 
Q 3016 2534 2758 2815 
Q 2500 3097 2075 3097 
Q 1594 3097 1305 2825 
Q 1016 2553 972 2059 
L 3022 2063 
z
" transform="scale(0.015625)"/>
       <path id="DejaVuSans-20" transform="scale(0.015625)"/>
       <path id="DejaVuSans-43" d="M 4122 4306 
L 4122 3641 
Q 3803 3938 3442 4084 
Q 3081 4231 2675 4231 
Q 1875 4231 1450 3742 
Q 1025 3253 1025 2328 
Q 1025 1406 1450 917 
Q 1875 428 2675 428 
Q 3081 428 3442 575 
Q 3803 722 4122 1019 
L 4122 359 
Q 3791 134 3420 21 
Q 3050 -91 2638 -91 
Q 1578 -91 968 557 
Q 359 1206 359 2328 
Q 359 3453 968 4101 
Q 1578 4750 2638 4750 
Q 3056 4750 3426 4639 
Q 3797 4528 4122 4306 
z
" transform="scale(0.015625)"/>
       <path id="DejaVuSans-66" d="M 2375 4863 
L 2375 4384 
L 1825 4384 
Q 1516 4384 1395 4259 
Q 1275 4134 1275 3809 
L 1275 3500 
L 2222 3500 
L 2222 3053 
L 1275 3053 
L 1275 0 
L 697 0 
L 697 3053 
L 147 3053 
L 147 3500 
L 697 3500 
L 697 3744 
Q 697 4328 969 4595 
Q 1241 4863 1831 4863 
L 2375 4863 
z
" transform="scale(0.015625)"/>
       <path id="DejaVuSans-69" d="M 603 3500 
L 1178 3500 
L 1178 0 
L 603 0 
L 603 3500 
z
M 603 4863 
L 1178 4863 
L 1178 4134 
L 603 4134 
L 603 4863 
z
" transform="scale(0.015625)"/>
       <path id="DejaVuSans-63" d="M 3122 3366 
L 3122 2828 
Q 2878 2963 2633 3030 
Q 2388 3097 2138 3097 
Q 1578 3097 1268 2742 
Q 959 2388 959 1747 
Q 959 1106 1268 751 
Q 1578 397 2138 397 
Q 2388 397 2633 464 
Q 2878 531 3122 666 
L 3122 134 
Q 2881 22 2623 -34 
Q 2366 -91 2075 -91 
Q 1284 -91 818 406 
Q 353 903 353 1747 
Q 353 2603 823 3093 
Q 1294 3584 2113 3584 
Q 2378 3584 2631 3529 
Q 2884 3475 3122 3366 
z
" transform="scale(0.015625)"/>
       <path id="DejaVuSans-6e" d="M 3513 2113 
L 3513 0 
L 2938 0 
L 2938 2094 
Q 2938 2591 2744 2837 
Q 2550 3084 2163 3084 
Q 1697 3084 1428 2787 
Q 1159 2491 1159 1978 
L 1159 0 
L 581 0 
L 581 3500 
L 1159 3500 
L 1159 2956 
Q 1366 3272 1645 3428 
Q 1925 3584 2291 3584 
Q 2894 3584 3203 3211 
Q 3513 2838 3513 2113 
z
" transform="scale(0.015625)"/>
       <path id="DejaVuSans-56" d="M 1831 0 
L 50 4666 
L 709 4666 
L 2188 738 
L 3669 4666 
L 4325 4666 
L 2547 0 
L 1831 0 
z
" transform="scale(0.015625)"/>
       <path id="DejaVuSans-61" d="M 2194 1759 
Q 1497 1759 1228 1600 
Q 959 1441 959 1056 
Q 959 750 1161 570 
Q 1363 391 1709 391 
Q 2188 391 2477 730 
Q 2766 1069 2766 1631 
L 2766 1759 
L 2194 1759 
z
M 3341 1997 
L 3341 0 
L 2766 0 
L 2766 531 
Q 2569 213 2275 61 
Q 1981 -91 1556 -91 
Q 1019 -91 701 211 
Q 384 513 384 1019 
Q 384 1609 779 1909 
Q 1175 2209 1959 2209 
L 2766 2209 
L 2766 2266 
Q 2766 2663 2505 2880 
Q 2244 3097 1772 3097 
Q 1472 3097 1187 3025 
Q 903 2953 641 2809 
L 641 3341 
Q 956 3463 1253 3523 
Q 1550 3584 1831 3584 
Q 2591 3584 2966 3190 
Q 3341 2797 3341 1997 
z
" transform="scale(0.015625)"/>
      </defs>
      <use xlink:href="#DejaVuSans-41"/>
      <use xlink:href="#DejaVuSans-62" transform="translate(68.408203 0)"/>
      <use xlink:href="#DejaVuSans-73" transform="translate(131.884766 0)"/>
      <use xlink:href="#DejaVuSans-6f" transform="translate(183.984375 0)"/>
      <use xlink:href="#DejaVuSans-6c" transform="translate(245.166016 0)"/>
      <use xlink:href="#DejaVuSans-75" transform="translate(272.949219 0)"/>
      <use xlink:href="#DejaVuSans-74" transform="translate(336.328125 0)"/>
      <use xlink:href="#DejaVuSans-65" transform="translate(375.537109 0)"/>
      <use xlink:href="#DejaVuSans-20" transform="translate(437.060547 0)"/>
      <use xlink:href="#DejaVuSans-43" transform="translate(468.847656 0)"/>
      <use xlink:href="#DejaVuSans-6f" transform="translate(538.671875 0)"/>
      <use xlink:href="#DejaVuSans-65" transform="translate(599.853516 0)"/>
      <use xlink:href="#DejaVuSans-66" transform="translate(661.376953 0)"/>
      <use xlink:href="#DejaVuSans-66" transform="translate(696.582031 0)"/>
      <use xlink:href="#DejaVuSans-69" transform="translate(731.787109 0)"/>
      <use xlink:href="#DejaVuSans-63" transform="translate(759.570312 0)"/>
      <use xlink:href="#DejaVuSans-69" transform="translate(814.550781 0)"/>
      <use xlink:href="#DejaVuSans-65" transform="translate(842.333984 0)"/>
      <use xlink:href="#DejaVuSans-6e" transform="translate(903.857422 0)"/>
      <use xlink:href="#DejaVuSans-74" transform="translate(967.236328 0)"/>
      <use xlink:href="#DejaVuSans-20" transform="translate(1006.445312 0)"/>
      <use xlink:href="#DejaVuSans-56" transform="translate(1038.232422 0)"/>
      <use xlink:href="#DejaVuSans-61" transform="translate(1098.890625 0)"/>
      <use xlink:href="#DejaVuSans-6c" transform="translate(1160.169922 0)"/>
      <use xlink:href="#DejaVuSans-75" transform="translate(1187.953125 0)"/>
      <use xlink:href="#DejaVuSans-65" transform="translate(1251.332031 0)"/>
     </g>
    </g>
   </g>
   <g id="matplotlib.axis_2">
    <g id="ytick_1">
     <g id="line2d_15">
      <path d="M 47.72 301.899797 
L 421.2 301.899797 
" clip-path="url(#pe928a9823f)" style="fill: none; stroke: #b0b0b0; stroke-opacity: 0.3; stroke-width: 0.8; stroke-linecap: square"/>
     </g>
     <g id="line2d_16">
      <defs>
       <path id="mad3b576fa2" d="M 0 0 
L -3.5 0 
" style="stroke: #000000; stroke-width: 0.8"/>
      </defs>
      <g>
       <use xlink:href="#mad3b576fa2" x="47.72" y="301.899797" style="stroke: #000000; stroke-width: 0.8"/>
      </g>
     </g>
     <g id="text_9">
      <!-- 0.0 -->
      <g transform="translate(24.816875 305.699015) scale(0.1 -0.1)">
       <defs>
        <path id="DejaVuSans-2e" d="M 684 794 
L 1344 794 
L 1344 0 
L 684 0 
L 684 794 
z
" transform="scale(0.015625)"/>
       </defs>
       <use xlink:href="#DejaVuSans-30"/>
       <use xlink:href="#DejaVuSans-2e" transform="translate(63.623047 0)"/>
       <use xlink:href="#DejaVuSans-30" transform="translate(95.410156 0)"/>
      </g>
     </g>
    </g>
    <g id="ytick_2">
     <g id="line2d_17">
      <path d="M 47.72 249.512637 
L 421.2 249.512637 
" clip-path="url(#pe928a9823f)" style="fill: none; stroke: #b0b0b0; stroke-opacity: 0.3; stroke-width: 0.8; stroke-linecap: square"/>
     </g>
     <g id="line2d_18">
      <g>
       <use xlink:href="#mad3b576fa2" x="47.72" y="249.512637" style="stroke: #000000; stroke-width: 0.8"/>
      </g>
     </g>
     <g id="text_10">
      <!-- 0.2 -->
      <g transform="translate(24.816875 253.311856) scale(0.1 -0.1)">
       <use xlink:href="#DejaVuSans-30"/>
       <use xlink:href="#DejaVuSans-2e" transform="translate(63.623047 0)"/>
       <use xlink:href="#DejaVuSans-32" transform="translate(95.410156 0)"/>
      </g>
     </g>
    </g>
    <g id="ytick_3">
     <g id="line2d_19">
      <path d="M 47.72 197.125478 
L 421.2 197.125478 
" clip-path="url(#pe928a9823f)" style="fill: none; stroke: #b0b0b0; stroke-opacity: 0.3; stroke-width: 0.8; stroke-linecap: square"/>
     </g>
     <g id="line2d_20">
      <g>
       <use xlink:href="#mad3b576fa2" x="47.72" y="197.125478" style="stroke: #000000; stroke-width: 0.8"/>
      </g>
     </g>
     <g id="text_11">
      <!-- 0.4 -->
      <g transform="translate(24.816875 200.924697) scale(0.1 -0.1)">
       <use xlink:href="#DejaVuSans-30"/>
       <use xlink:href="#DejaVuSans-2e" transform="translate(63.623047 0)"/>
       <use xlink:href="#DejaVuSans-34" transform="translate(95.410156 0)"/>
      </g>
     </g>
    </g>
    <g id="ytick_4">
     <g id="line2d_21">
      <path d="M 47.72 144.738319 
L 421.2 144.738319 
" clip-path="url(#pe928a9823f)" style="fill: none; stroke: #b0b0b0; stroke-opacity: 0.3; stroke-width: 0.8; stroke-linecap: square"/>
     </g>
     <g id="line2d_22">
      <g>
       <use xlink:href="#mad3b576fa2" x="47.72" y="144.738319" style="stroke: #000000; stroke-width: 0.8"/>
      </g>
     </g>
     <g id="text_12">
      <!-- 0.6 -->
      <g transform="translate(24.816875 148.537537) scale(0.1 -0.1)">
       <use xlink:href="#DejaVuSans-30"/>
       <use xlink:href="#DejaVuSans-2e" transform="translate(63.623047 0)"/>
       <use xlink:href="#DejaVuSans-36" transform="translate(95.410156 0)"/>
      </g>
     </g>
    </g>
    <g id="ytick_5">
     <g id="line2d_23">
      <path d="M 47.72 92.351159 
L 421.2 92.351159 
" clip-path="url(#pe928a9823f)" style="fill: none; stroke: #b0b0b0; stroke-opacity: 0.3; stroke-width: 0.8; stroke-linecap: square"/>
     </g>
     <g id="line2d_24">
      <g>
       <use xlink:href="#mad3b576fa2" x="47.72" y="92.351159" style="stroke: #000000; stroke-width: 0.8"/>
      </g>
     </g>
     <g id="text_13">
      <!-- 0.8 -->
      <g transform="translate(24.816875 96.150378) scale(0.1 -0.1)">
       <defs>
        <path id="DejaVuSans-38" d="M 2034 2216 
Q 1584 2216 1326 1975 
Q 1069 1734 1069 1313 
Q 1069 891 1326 650 
Q 1584 409 2034 409 
Q 2484 409 2743 651 
Q 3003 894 3003 1313 
Q 3003 1734 2745 1975 
Q 2488 2216 2034 2216 
z
M 1403 2484 
Q 997 2584 770 2862 
Q 544 3141 544 3541 
Q 544 4100 942 4425 
Q 1341 4750 2034 4750 
Q 2731 4750 3128 4425 
Q 3525 4100 3525 3541 
Q 3525 3141 3298 2862 
Q 3072 2584 2669 2484 
Q 3125 2378 3379 2068 
Q 3634 1759 3634 1313 
Q 3634 634 3220 271 
Q 2806 -91 2034 -91 
Q 1263 -91 848 271 
Q 434 634 434 1313 
Q 434 1759 690 2068 
Q 947 2378 1403 2484 
z
M 1172 3481 
Q 1172 3119 1398 2916 
Q 1625 2713 2034 2713 
Q 2441 2713 2670 2916 
Q 2900 3119 2900 3481 
Q 2900 3844 2670 4047 
Q 2441 4250 2034 4250 
Q 1625 4250 1398 4047 
Q 1172 3844 1172 3481 
z
" transform="scale(0.015625)"/>
       </defs>
       <use xlink:href="#DejaVuSans-30"/>
       <use xlink:href="#DejaVuSans-2e" transform="translate(63.623047 0)"/>
       <use xlink:href="#DejaVuSans-38" transform="translate(95.410156 0)"/>
      </g>
     </g>
    </g>
    <g id="ytick_6">
     <g id="line2d_25">
      <path d="M 47.72 39.964 
L 421.2 39.964 
" clip-path="url(#pe928a9823f)" style="fill: none; stroke: #b0b0b0; stroke-opacity: 0.3; stroke-width: 0.8; stroke-linecap: square"/>
     </g>
     <g id="line2d_26">
      <g>
       <use xlink:href="#mad3b576fa2" x="47.72" y="39.964" style="stroke: #000000; stroke-width: 0.8"/>
      </g>
     </g>
     <g id="text_14">
      <!-- 1.0 -->
      <g transform="translate(24.816875 43.763219) scale(0.1 -0.1)">
       <use xlink:href="#DejaVuSans-31"/>
       <use xlink:href="#DejaVuSans-2e" transform="translate(63.623047 0)"/>
       <use xlink:href="#DejaVuSans-30" transform="translate(95.410156 0)"/>
      </g>
     </g>
    </g>
    <g id="text_15">
     <!-- CDF -->
     <g transform="translate(18.737188 181.021187) rotate(-90) scale(0.1 -0.1)">
      <defs>
       <path id="DejaVuSans-44" d="M 1259 4147 
L 1259 519 
L 2022 519 
Q 2988 519 3436 956 
Q 3884 1394 3884 2338 
Q 3884 3275 3436 3711 
Q 2988 4147 2022 4147 
L 1259 4147 
z
M 628 4666 
L 1925 4666 
Q 3281 4666 3915 4102 
Q 4550 3538 4550 2338 
Q 4550 1131 3912 565 
Q 3275 0 1925 0 
L 628 0 
L 628 4666 
z
" transform="scale(0.015625)"/>
       <path id="DejaVuSans-46" d="M 628 4666 
L 3309 4666 
L 3309 4134 
L 1259 4134 
L 1259 2759 
L 3109 2759 
L 3109 2228 
L 1259 2228 
L 1259 0 
L 628 0 
L 628 4666 
z
" transform="scale(0.015625)"/>
      </defs>
      <use xlink:href="#DejaVuSans-43"/>
      <use xlink:href="#DejaVuSans-44" transform="translate(69.824219 0)"/>
      <use xlink:href="#DejaVuSans-46" transform="translate(146.826172 0)"/>
     </g>
    </g>
   </g>
   <g id="line2d_27">
    <path d="M 318.883551 301.644 
L 321.948997 301.388203 
L 322.864674 301.132407 
L 325.336525 300.87661 
L 325.853865 300.620813 
L 327.459845 300.10922 
L 328.360188 299.853423 
L 328.695711 299.34183 
L 330.537908 299.086033 
L 330.575778 298.830237 
L 332.20465 298.57444 
L 332.815593 297.80705 
L 332.834459 297.551253 
L 333.975152 297.295457 
L 334.032041 297.03966 
L 334.371534 296.783863 
L 335.252206 296.528066 
L 335.463746 296.27227 
L 337.071622 296.016473 
L 337.107921 295.760676 
L 337.718553 295.50488 
L 337.740012 295.249083 
L 338.069104 294.73749 
L 338.371461 294.481693 
L 338.753479 293.458506 
L 339.17618 293.20271 
L 339.387055 292.43532 
L 339.688598 291.923726 
L 340.821862 291.412133 
L 341.27271 290.388946 
L 341.67789 289.621556 
L 341.87642 289.109963 
L 342.523241 288.086776 
L 342.52924 287.830979 
L 342.697999 287.319386 
L 343.089399 287.063589 
L 343.377186 285.784606 
L 343.803404 285.273013 
L 344.004225 284.249826 
L 344.201762 283.994029 
L 344.353208 283.482436 
L 344.682338 282.715046 
L 344.895253 282.203453 
L 344.985881 281.691859 
L 345.094111 280.924469 
L 345.355747 280.412876 
L 345.428848 279.901283 
L 345.614783 279.645486 
L 345.653504 279.389689 
L 345.883828 279.133892 
L 346.014661 277.599112 
L 346.205935 277.087519 
L 346.717297 274.529552 
L 346.753511 274.273756 
L 347.070674 273.762162 
L 347.35904 272.994772 
L 347.698393 272.738976 
L 347.84541 272.227382 
L 347.938057 271.971586 
L 348.580146 271.204196 
L 348.751328 270.436805 
L 348.856605 269.413619 
L 349.11664 269.157822 
L 349.301632 268.390432 
L 349.45109 268.134635 
L 349.471353 267.878839 
L 349.784939 267.623042 
L 350.13804 266.344059 
L 350.303092 265.832465 
L 351.427532 259.437548 
L 351.427636 259.181752 
L 351.758255 258.414362 
L 352.507354 254.065818 
L 352.667465 252.531038 
L 352.973127 251.252055 
L 353.051481 249.973071 
L 353.082324 249.205681 
L 353.277005 248.438291 
L 353.405283 247.159308 
L 353.519412 246.647715 
L 353.658063 246.136121 
L 353.774093 245.624528 
L 353.842015 244.601341 
L 354.020472 244.345544 
L 354.446746 239.229611 
L 354.548548 238.206424 
L 354.66421 237.694831 
L 354.924869 234.881067 
L 354.997118 234.113677 
L 355.204217 231.555711 
L 355.393401 229.765134 
L 355.576052 229.253541 
L 355.714532 227.207167 
L 355.814907 225.41659 
L 356.120353 222.34703 
L 356.234109 221.323844 
L 356.420371 220.81225 
L 356.466207 220.04486 
L 356.698002 219.27747 
L 357.038381 213.649943 
L 357.1284 212.882553 
L 357.242565 211.60357 
L 357.465049 208.53401 
L 357.630277 206.487636 
L 357.880953 203.673873 
L 358.062037 202.650686 
L 358.185782 200.092719 
L 358.823 191.139836 
L 359.008192 189.605056 
L 359.131283 187.558682 
L 359.267918 185.512309 
L 359.353867 184.489122 
L 359.449549 183.210139 
L 360.306455 171.699288 
L 360.399216 169.141322 
L 360.823079 163.002201 
L 360.969458 161.467421 
L 361.103937 159.932641 
L 361.206992 158.397861 
L 361.344454 156.095691 
L 361.462804 153.793521 
L 361.917267 145.863824 
L 362.024613 145.352231 
L 362.216103 142.794264 
L 362.308235 141.771077 
L 362.411767 140.236297 
L 362.525247 139.724704 
L 362.566289 138.189924 
L 362.679407 137.67833 
L 363.142774 130.77182 
L 363.244157 129.492837 
L 363.302734 128.725447 
L 363.448188 125.144293 
L 363.545554 123.86531 
L 363.693498 121.818936 
L 364.226138 115.42402 
L 364.392411 112.610256 
L 364.520649 111.075476 
L 364.713742 110.563883 
L 364.910396 108.261713 
L 365.036447 105.959543 
L 365.128416 105.447949 
L 365.723177 98.541439 
L 365.852919 97.518252 
L 366.137105 94.704489 
L 366.263525 93.937099 
L 366.495256 89.588555 
L 366.729336 88.821165 
L 366.835729 87.542182 
L 366.981263 86.518995 
L 367.102629 84.472622 
L 367.318968 81.658858 
L 367.596355 81.147265 
L 367.698046 80.379875 
L 368.050932 77.054518 
L 368.163446 75.263941 
L 368.22295 74.240755 
L 368.327566 73.729161 
L 368.861364 70.659601 
L 368.96747 69.380618 
L 369.298633 67.590041 
L 370.012914 66.822651 
L 370.092446 66.311058 
L 370.152519 65.543668 
L 370.246061 64.264684 
L 370.927956 59.916141 
L 371.169879 59.148751 
L 371.22743 58.125564 
L 371.332867 57.613971 
L 371.457014 56.590784 
L 373.173991 51.986444 
L 373.84051 51.730647 
L 374.14217 51.47485 
L 374.179028 50.963257 
L 374.487934 50.70746 
L 374.635158 50.195867 
L 374.786584 49.684274 
L 375.37521 49.17268 
L 375.40844 48.916884 
L 375.975106 48.661087 
L 376.257553 47.382104 
L 376.505038 47.126307 
L 376.5238 46.87051 
L 376.950794 46.614714 
L 377.82747 46.358917 
L 377.837502 46.10312 
L 378.245179 45.591527 
L 378.318889 45.079934 
L 378.551756 44.312543 
L 378.869599 44.056747 
L 379.592148 43.80095 
L 380.749782 43.545153 
L 380.876821 43.03356 
L 381.678707 42.777763 
L 383.290521 42.521967 
L 383.80754 41.754577 
L 384.482694 41.49878 
L 384.804207 41.242983 
L 388.451911 40.73139 
L 392.293723 40.475593 
L 394.154806 40.219797 
L 404.223636 39.964 
L 404.223636 39.964 
" clip-path="url(#pe928a9823f)" style="fill: none; stroke: #1f77b4; stroke-width: 1.5; stroke-linecap: square"/>
   </g>
   <g id="line2d_28">
    <path d="M -1 298.063901 
L 64.696364 298.062847 
L 78.331886 297.80705 
L 80.542252 297.551253 
L 88.125668 297.295457 
L 88.809932 297.03966 
L 93.101234 296.016473 
L 93.336997 295.50488 
L 93.347217 295.249083 
L 94.982443 294.481693 
L 96.016702 292.946913 
L 97.719182 292.179523 
L 98.127749 291.66793 
L 98.139263 291.412133 
L 98.290943 291.156336 
L 99.405823 290.90054 
L 99.515653 290.388946 
L 99.557965 289.877353 
L 99.802044 289.621556 
L 101.077044 289.109963 
L 101.372747 288.59837 
L 101.873769 288.342573 
L 102.034143 288.086776 
L 102.577965 287.830979 
L 102.789121 287.575183 
L 103.062042 286.296199 
L 103.652968 285.784606 
L 103.705166 285.528809 
L 103.941746 285.273013 
L 104.020908 284.761419 
L 104.722233 284.249826 
L 104.938955 283.482436 
L 105.156742 283.226639 
L 105.464338 282.459249 
L 105.695681 282.203453 
L 105.737219 281.691859 
L 106.148302 280.924469 
L 106.160711 280.668673 
L 106.547013 280.412876 
L 106.722436 279.133892 
L 106.844687 278.622299 
L 107.017092 278.366502 
L 107.017092 278.110706 
L 107.285772 277.599112 
L 107.639669 276.575926 
L 108.40989 276.064332 
L 108.479559 275.808536 
L 109.120954 275.041146 
L 109.224956 274.017959 
L 109.44097 273.506366 
L 109.606243 272.738976 
L 109.692252 271.971586 
L 110.021442 271.715789 
L 110.313787 270.181009 
L 110.374385 269.669415 
L 110.568861 269.157822 
L 110.680743 268.390432 
L 110.939834 266.344059 
L 111.163028 264.041889 
L 111.399021 263.274499 
L 111.613367 261.483922 
L 112.517987 255.089005 
L 112.851315 254.321615 
L 112.96781 253.298428 
L 113.085263 252.275241 
L 113.253541 250.996258 
L 113.402642 250.484665 
L 113.676758 248.694088 
L 113.703473 247.670901 
L 113.828608 247.159308 
L 113.996391 246.136121 
L 114.129177 245.624528 
L 114.279965 244.345544 
L 114.346314 242.810764 
L 114.391932 242.299171 
L 114.532269 242.043374 
L 114.583317 241.275984 
L 114.699698 240.764391 
L 114.809836 238.973814 
L 114.910968 237.439034 
L 115.039468 236.415848 
L 115.151652 235.648457 
L 115.347596 234.625271 
L 115.513311 233.090491 
L 115.970124 226.439777 
L 116.120956 225.160794 
L 116.189741 223.88181 
L 116.548758 222.091234 
L 116.637403 220.300657 
L 116.839043 216.719503 
L 117.045529 215.184723 
L 117.171246 214.161537 
L 118.846757 193.697803 
L 119.674834 183.210139 
L 119.802537 182.698545 
L 120.276624 177.071019 
L 120.791821 166.839152 
L 120.897654 166.327558 
L 121.078593 163.002201 
L 121.338402 159.676845 
L 121.595963 155.839894 
L 121.666601 155.328301 
L 121.834494 150.979758 
L 122.020666 146.887011 
L 122.141442 145.352231 
L 122.611224 140.236297 
L 122.680142 139.21311 
L 122.763629 138.44572 
L 123.327766 131.795007 
L 123.437958 130.260227 
L 123.964471 122.842123 
L 124.139868 120.02836 
L 124.257243 118.49358 
L 124.385559 117.72619 
L 124.606764 114.65663 
L 124.772603 112.354459 
L 124.911272 111.331273 
L 125.09365 108.773306 
L 125.257827 107.494323 
L 126.554404 91.123335 
L 126.630391 89.844352 
L 126.738687 89.332759 
L 126.803933 87.542182 
L 127.025373 87.030588 
L 127.202913 84.984215 
L 127.556909 82.937842 
L 127.716718 81.658858 
L 127.809745 81.147265 
L 127.90707 80.379875 
L 128.435563 79.356688 
L 128.643736 77.310315 
L 128.779774 76.798721 
L 128.835746 76.287128 
L 128.996568 75.775535 
L 129.065769 74.496551 
L 129.257169 73.984958 
L 129.293808 73.473365 
L 129.411553 72.961771 
L 129.517849 72.450178 
L 129.660714 71.426991 
L 129.900468 70.659601 
L 130.062739 69.892211 
L 130.095819 69.380618 
L 130.49779 68.869024 
L 130.52756 68.357431 
L 131.058533 67.334244 
L 131.102342 67.078448 
L 131.438732 66.566854 
L 131.554514 66.311058 
L 132.584867 66.055261 
L 132.641507 65.543668 
L 133.011134 65.032074 
L 133.014067 64.776278 
L 133.585781 64.520481 
L 133.672327 64.264684 
L 134.073919 63.753091 
L 136.32306 62.985701 
L 136.750257 62.729904 
L 136.750257 62.474108 
L 137.043295 62.218311 
L 139.744237 61.706717 
L 328.127349 61.450921 
L 346.871457 61.195124 
L 353.068687 60.683531 
L 354.416029 60.427734 
L 354.504501 60.171937 
L 355.11955 59.916141 
L 355.362899 59.660344 
L 359.097876 59.404547 
L 360.187738 59.148751 
L 362.216299 58.892954 
L 362.962325 58.381361 
L 363.561085 57.869767 
L 363.759945 57.613971 
L 364.183979 57.358174 
L 364.192285 57.102377 
L 365.29642 56.590784 
L 365.379515 56.334987 
L 365.77991 56.079191 
L 366.461795 55.823394 
L 366.685504 55.567597 
L 367.43081 55.311801 
L 367.664153 54.800207 
L 368.218168 54.544411 
L 368.494126 54.288614 
L 368.569245 54.032817 
L 370.029313 53.521224 
L 370.119682 53.265427 
L 370.803745 53.00963 
L 371.100192 52.498037 
L 371.836003 52.24224 
L 372.44671 51.47485 
L 372.740353 50.70746 
L 373.27835 50.451664 
L 373.469807 49.94007 
L 373.560991 49.684274 
L 374.462209 49.428477 
L 374.507917 49.17268 
L 374.781998 48.661087 
L 375.554245 48.40529 
L 375.885167 48.149494 
L 376.047737 47.6379 
L 376.064591 47.382104 
L 376.214798 47.126307 
L 376.881943 46.614714 
L 376.889844 46.358917 
L 377.404479 45.847324 
L 378.826359 44.56834 
L 378.995788 44.056747 
L 379.585868 43.80095 
L 380.723675 43.545153 
L 380.92975 43.03356 
L 381.601249 42.777763 
L 383.279193 42.521967 
L 383.777226 42.010373 
L 383.779259 41.754577 
L 384.501761 41.49878 
L 384.824706 41.242983 
L 388.433353 40.73139 
L 392.311458 40.475593 
L 394.163704 40.219797 
L 404.222641 39.964 
L 404.222641 39.964 
" clip-path="url(#pe928a9823f)" style="fill: none; stroke: #ff7f0e; stroke-width: 1.5; stroke-linecap: square"/>
   </g>
   <g id="line2d_29">
    <path d="M -1 298.575661 
L 75.122849 298.57444 
L 91.11294 298.062847 
L 94.890766 297.80705 
L 95.958383 297.551253 
L 96.43343 297.295457 
L 96.508725 297.03966 
L 97.248436 296.783863 
L 97.459778 296.528066 
L 98.216563 296.27227 
L 98.5637 296.016473 
L 99.359628 295.760676 
L 99.51725 295.50488 
L 100.369789 294.993286 
L 101.130367 294.73749 
L 101.263002 294.481693 
L 102.02025 294.225896 
L 102.132764 293.714303 
L 102.234549 293.20271 
L 102.673002 292.946913 
L 102.736914 292.691116 
L 103.493504 291.66793 
L 104.217815 291.412133 
L 104.568957 290.644743 
L 105.058651 289.36576 
L 105.335678 289.109963 
L 105.361023 288.854166 
L 105.615971 288.59837 
L 105.626887 288.342573 
L 106.255361 287.319386 
L 106.993184 286.040403 
L 107.0922 284.761419 
L 107.290948 284.505623 
L 107.874387 281.947656 
L 108.365505 281.436063 
L 108.38188 281.180266 
L 108.589494 280.668673 
L 108.589854 280.412876 
L 109.111318 279.901283 
L 109.459256 278.878096 
L 109.717686 278.622299 
L 109.87424 277.854909 
L 109.90927 276.831722 
L 110.090053 276.064332 
L 110.214264 275.552739 
L 110.375317 275.041146 
L 110.50146 274.273756 
L 110.502928 274.017959 
L 110.67954 273.506366 
L 110.868902 272.483179 
L 111.247584 271.204196 
L 111.375463 270.436805 
L 111.825807 270.181009 
L 111.90142 266.599855 
L 112.109352 266.088262 
L 112.13817 265.832465 
L 112.731389 265.320872 
L 112.806901 264.809279 
L 112.819264 264.553482 
L 113.05419 264.297685 
L 113.192842 263.274499 
L 113.463878 261.995515 
L 113.602554 260.460735 
L 114.16966 258.158565 
L 114.270015 257.391175 
L 114.387843 256.623785 
L 114.471879 255.856395 
L 114.574905 255.089005 
L 115.062599 252.019445 
L 115.198219 251.252055 
L 115.236485 250.740461 
L 115.514344 249.973071 
L 115.68278 249.205681 
L 115.991878 247.159308 
L 116.091835 246.647715 
L 116.174681 245.880325 
L 116.313622 245.368731 
L 116.518139 242.554968 
L 116.631132 241.531781 
L 116.785748 239.741204 
L 116.867036 236.160051 
L 117.128307 234.881067 
L 117.200732 233.602084 
L 117.300407 232.834694 
L 117.530864 230.020931 
L 117.996707 227.462964 
L 118.098542 226.695574 
L 118.35815 223.88181 
L 118.381651 221.57964 
L 118.543685 221.068047 
L 118.79594 219.021674 
L 118.917746 217.486893 
L 119.342996 215.184723 
L 119.449707 214.161537 
L 119.569136 213.13835 
L 119.814092 208.278213 
L 119.928433 207.76662 
L 120.025751 206.23184 
L 120.890044 198.557939 
L 121.422137 191.651429 
L 121.582772 190.884039 
L 121.643008 190.372446 
L 121.767097 187.047089 
L 121.932145 185.256512 
L 122.138256 183.721732 
L 122.446002 181.419562 
L 122.63177 177.838409 
L 122.78388 177.326815 
L 122.983018 172.978272 
L 123.15549 171.955085 
L 123.488395 164.536981 
L 123.96988 159.676845 
L 124.203513 156.607284 
L 124.304765 155.839894 
L 124.427412 154.305114 
L 124.527224 153.793521 
L 124.57085 152.770334 
L 124.77301 152.002944 
L 125.16155 145.608027 
L 125.314483 144.584841 
L 125.601087 141.259484 
L 125.684642 139.468907 
L 125.860736 138.957314 
L 125.943364 138.189924 
L 126.099627 137.934127 
L 126.201 136.91094 
L 126.616066 133.585584 
L 126.764106 132.818194 
L 126.906903 132.3066 
L 127.042411 131.027617 
L 127.321122 130.00443 
L 127.644709 127.446463 
L 127.839348 126.679073 
L 128.013395 125.655887 
L 128.126806 125.144293 
L 128.190305 123.86531 
L 128.415674 123.609513 
L 128.772848 121.051546 
L 128.906565 120.539953 
L 129.035496 120.02836 
L 129.213403 118.749376 
L 129.503788 118.49358 
L 129.809751 116.9588 
L 130.207527 116.447206 
L 130.313881 115.679816 
L 130.49779 115.168223 
L 131.13575 113.633443 
L 131.268036 112.866053 
L 131.553816 112.610256 
L 131.641376 112.354459 
L 131.962415 111.842866 
L 132.335174 111.075476 
L 132.804008 110.819679 
L 133.99598 110.563883 
L 134.308093 109.796493 
L 134.686355 109.540696 
L 134.728193 109.284899 
L 135.370044 109.029103 
L 136.95488 108.517509 
L 137.232103 108.261713 
L 138.325112 108.005916 
L 138.639934 107.750119 
L 139.752463 107.238526 
L 143.649552 106.982729 
L 318.286949 106.726933 
L 327.569417 106.471136 
L 330.945605 106.215339 
L 334.178334 105.703746 
L 340.588436 105.192152 
L 340.913088 104.936356 
L 340.96508 104.680559 
L 341.320546 104.424762 
L 342.42256 103.913169 
L 343.573993 103.657372 
L 343.920473 103.401576 
L 345.129325 103.145779 
L 346.391243 102.378389 
L 347.090946 102.122592 
L 347.124647 101.610999 
L 347.499234 101.355202 
L 347.559977 101.099406 
L 348.071314 100.843609 
L 349.008437 100.587812 
L 349.393177 100.332016 
L 349.566616 99.308829 
L 350.181031 99.053032 
L 350.218426 98.541439 
L 351.20083 98.285642 
L 351.321314 98.029846 
L 352.000658 97.518252 
L 352.049725 97.262456 
L 352.531484 97.006659 
L 352.617957 96.750862 
L 353.109756 96.239269 
L 353.163457 95.727675 
L 354.714998 94.448692 
L 354.969949 93.681302 
L 355.406687 92.146522 
L 355.698795 91.123335 
L 356.461417 90.611742 
L 356.742832 90.100149 
L 356.864118 89.332759 
L 357.527864 88.309572 
L 357.974623 88.053775 
L 358.056781 87.797978 
L 358.459871 87.286385 
L 358.474011 86.774792 
L 358.912342 86.007402 
L 359.345539 85.495808 
L 359.479575 84.984215 
L 359.645128 84.728418 
L 359.652477 84.472622 
L 359.955617 83.961028 
L 360.0587 83.193638 
L 360.101227 82.937842 
L 360.267519 82.682045 
L 360.728954 82.426248 
L 361.147521 81.403062 
L 361.427574 81.147265 
L 361.552039 80.635672 
L 361.786305 80.379875 
L 361.799451 80.124078 
L 361.982297 79.868282 
L 362.123211 79.356688 
L 362.388196 78.845095 
L 363.300233 77.054518 
L 363.303133 76.798721 
L 363.455606 76.542925 
L 363.537511 76.031331 
L 363.78207 75.519738 
L 364.488989 73.473365 
L 364.65979 72.450178 
L 364.944881 72.194381 
L 365.152835 70.915398 
L 365.229558 70.403804 
L 365.431934 70.148008 
L 365.537507 69.636414 
L 365.785026 69.124821 
L 366.394288 65.543668 
L 366.595855 65.287871 
L 366.737948 64.520481 
L 367.090634 64.008888 
L 367.174256 63.241498 
L 367.497386 62.729904 
L 368.080472 61.195124 
L 368.334421 60.939327 
L 368.479596 60.427734 
L 368.707205 59.916141 
L 368.745979 59.660344 
L 369.026532 59.404547 
L 369.163283 58.892954 
L 369.475651 58.637157 
L 369.582423 58.125564 
L 369.764408 57.358174 
L 369.931975 57.102377 
L 369.956341 56.846581 
L 370.132429 56.590784 
L 370.156629 56.079191 
L 370.399079 55.567597 
L 370.459991 55.056004 
L 370.637858 54.800207 
L 370.702427 54.288614 
L 370.9574 53.521224 
L 370.997968 53.265427 
L 371.501265 52.498037 
L 371.663002 51.730647 
L 372.464634 50.963257 
L 372.544634 50.451664 
L 372.826468 50.195867 
L 372.934491 49.684274 
L 372.957188 49.428477 
L 373.913642 47.893697 
L 373.987072 47.6379 
L 374.574181 47.382104 
L 374.57655 47.126307 
L 375.256617 46.614714 
L 375.70318 45.591527 
L 376.135258 45.33573 
L 376.232912 45.079934 
L 376.858719 44.824137 
L 376.889339 44.56834 
L 377.105751 44.312543 
L 377.557077 44.056747 
L 377.579745 43.80095 
L 380.215768 43.289357 
L 380.419653 43.03356 
L 381.153363 42.777763 
L 381.467567 42.521967 
L 382.70895 42.26617 
L 382.990474 41.49878 
L 384.019199 41.242983 
L 388.20846 40.73139 
L 392.199302 40.475593 
L 393.676639 40.219797 
L 404.198252 39.964 
L 404.198252 39.964 
" clip-path="url(#pe928a9823f)" style="fill: none; stroke: #2ca02c; stroke-width: 1.5; stroke-linecap: square"/>
   </g>
   <g id="line2d_30">
    <path d="M -1 299.854754 
L 82.031941 299.853423 
L 83.726453 299.597627 
L 89.396571 299.086033 
L 92.379693 298.830237 
L 93.679371 298.57444 
L 93.858619 298.318643 
L 94.569864 298.062847 
L 96.019464 297.80705 
L 97.248436 296.783863 
L 97.248436 296.528066 
L 98.618748 296.27227 
L 99.268598 296.016473 
L 99.379452 295.760676 
L 101.171002 294.993286 
L 101.412842 294.73749 
L 101.877059 294.481693 
L 102.132764 293.9701 
L 102.148026 293.458506 
L 102.249706 293.20271 
L 103.065902 292.946913 
L 103.448061 292.691116 
L 103.542236 292.43532 
L 104.598865 291.412133 
L 104.66298 291.156336 
L 105.08563 290.90054 
L 105.550125 289.621556 
L 105.957586 289.36576 
L 106.147648 289.109963 
L 106.67879 288.59837 
L 107.017092 287.830979 
L 107.053888 285.273013 
L 107.3294 285.017216 
L 107.428261 284.761419 
L 107.754218 284.505623 
L 107.916836 283.994029 
L 108.46052 283.738233 
L 108.472272 283.482436 
L 108.655569 283.226639 
L 109.012744 282.970843 
L 109.073218 282.459249 
L 109.447401 281.947656 
L 109.562383 281.436063 
L 109.733614 280.924469 
L 109.87424 280.412876 
L 109.96173 279.645486 
L 110.384633 279.389689 
L 110.414172 279.133892 
L 110.669173 278.878096 
L 110.755868 278.366502 
L 110.88509 277.599112 
L 111.158575 275.808536 
L 111.446643 275.296942 
L 111.499916 274.785349 
L 111.742864 274.529552 
L 111.827307 273.506366 
L 111.90142 271.971586 
L 112.006442 269.413619 
L 112.200176 269.157822 
L 112.328193 267.878839 
L 112.661733 267.367245 
L 112.721491 266.855652 
L 112.931855 266.344059 
L 113.059024 265.320872 
L 113.294505 265.065075 
L 113.295418 264.809279 
L 113.473822 264.297685 
L 113.473822 263.786092 
L 113.850019 263.018702 
L 114.280589 258.925955 
L 114.41837 258.414362 
L 114.758568 255.344802 
L 114.830951 253.810022 
L 115.046225 252.786835 
L 115.140415 252.275241 
L 115.292906 251.763648 
L 115.428613 251.252055 
L 115.693339 250.484665 
L 115.861089 249.461478 
L 116.061801 247.670901 
L 116.215765 247.159308 
L 116.785748 241.531781 
L 116.873411 240.764391 
L 118.35815 228.230354 
L 118.362021 226.95137 
L 118.532078 226.439777 
L 118.587291 225.672387 
L 118.655901 225.160794 
L 118.910527 222.602827 
L 118.999908 222.091234 
L 119.642896 215.184723 
L 119.739155 213.394147 
L 119.92451 211.859367 
L 120.070094 210.06879 
L 120.159765 209.3014 
L 120.273098 207.76662 
L 120.354458 206.743433 
L 120.533868 203.92967 
L 120.729134 201.883296 
L 120.800314 200.092719 
L 120.908515 199.069533 
L 120.976408 198.302143 
L 121.13409 198.046346 
L 121.215299 196.767363 
L 121.349139 196.255769 
L 121.442403 194.976786 
L 121.557218 193.186209 
L 121.833502 187.302886 
L 122.097273 185.768106 
L 122.839677 178.350002 
L 123.027151 177.582612 
L 123.182078 176.303629 
L 123.295392 173.489865 
L 123.397482 172.978272 
L 123.586283 169.652915 
L 123.977791 164.025388 
L 124.102833 163.513795 
L 124.265531 161.467421 
L 124.315653 160.700031 
L 124.421726 159.165251 
L 124.527224 158.397861 
L 124.630248 156.095691 
L 124.784138 154.816708 
L 125.413714 148.421791 
L 125.488552 147.654401 
L 125.555091 147.142807 
L 125.613462 146.631214 
L 125.722316 145.096434 
L 125.860736 143.050061 
L 126.02584 142.794264 
L 126.114051 141.515281 
L 126.214311 141.003687 
L 126.274131 140.492094 
L 126.386952 139.9805 
L 126.554404 139.21311 
L 126.663656 137.67833 
L 126.812507 136.91094 
L 127.02022 136.399347 
L 127.408212 134.352974 
L 127.409288 134.097177 
L 127.577443 133.585584 
L 127.688219 132.818194 
L 127.959611 131.283413 
L 128.111029 130.77182 
L 128.269345 128.981243 
L 128.865012 126.16748 
L 128.996568 124.888497 
L 129.111652 124.376903 
L 129.213403 123.09792 
L 129.353383 122.33053 
L 129.923733 120.284156 
L 130.172454 119.772563 
L 130.241522 119.005173 
L 130.435592 118.749376 
L 130.491089 118.237783 
L 130.657449 117.72619 
L 131.438732 115.42402 
L 131.641696 115.168223 
L 131.655567 114.912426 
L 132.280914 114.65663 
L 132.429248 113.633443 
L 132.955666 113.121849 
L 133.011134 112.866053 
L 133.682747 112.610256 
L 134.903935 111.587069 
L 134.994134 111.331273 
L 135.597355 110.563883 
L 136.164835 110.308086 
L 138.069461 110.052289 
L 138.354351 109.796493 
L 140.360194 109.540696 
L 143.649552 109.284899 
L 323.737253 109.029103 
L 324.239755 108.773306 
L 339.462118 108.261713 
L 340.989061 108.005916 
L 341.124957 107.750119 
L 341.796618 107.238526 
L 342.732523 106.982729 
L 343.212206 106.726933 
L 343.622162 106.215339 
L 346.648219 105.703746 
L 346.744789 105.192152 
L 348.846161 104.680559 
L 348.847687 104.424762 
L 349.871116 104.168966 
L 349.875851 103.913169 
L 350.932205 103.657372 
L 352.058834 103.145779 
L 352.157703 102.889982 
L 353.23101 102.634186 
L 353.736153 102.378389 
L 353.917112 101.610999 
L 354.149458 101.355202 
L 354.306275 100.843609 
L 354.626179 100.332016 
L 354.986058 98.797236 
L 355.007697 98.541439 
L 355.143561 98.285642 
L 355.258265 97.774049 
L 355.45854 97.262456 
L 355.780817 96.750862 
L 356.097992 96.495065 
L 356.181463 95.727675 
L 356.600784 95.471879 
L 356.791361 94.960285 
L 357.189254 94.192895 
L 357.207933 93.937099 
L 357.378424 93.681302 
L 357.430402 93.169709 
L 357.514421 92.913912 
L 358.229912 92.402319 
L 358.474906 91.634929 
L 358.791807 91.379132 
L 358.971463 90.611742 
L 359.150211 90.100149 
L 359.379907 89.588555 
L 359.902291 89.332759 
L 360.004232 88.821165 
L 360.350222 87.542182 
L 360.677068 87.286385 
L 360.872683 86.518995 
L 361.272151 85.240012 
L 361.281897 84.984215 
L 361.65072 84.728418 
L 361.820453 84.216825 
L 361.82474 83.961028 
L 362.149966 83.705232 
L 362.276285 83.193638 
L 362.29863 82.682045 
L 362.552548 82.426248 
L 362.561058 82.170452 
L 363.466266 81.403062 
L 363.584058 80.891468 
L 363.663449 80.379875 
L 363.675032 80.124078 
L 363.966278 79.612485 
L 364.110021 78.845095 
L 364.386703 78.589298 
L 364.41444 78.333501 
L 365.042281 77.054518 
L 365.244624 76.542925 
L 365.694791 75.263941 
L 365.897802 74.240755 
L 366.133188 73.473365 
L 366.258807 72.705975 
L 366.325793 72.194381 
L 366.578033 71.938585 
L 366.736705 70.659601 
L 367.055414 70.148008 
L 367.131681 69.636414 
L 367.283994 69.380618 
L 367.361938 68.613228 
L 367.438734 68.101634 
L 367.446824 67.845838 
L 367.610999 67.590041 
L 367.785375 66.822651 
L 367.957522 66.566854 
L 368.195624 65.032074 
L 368.495489 64.264684 
L 368.56144 63.497294 
L 368.741496 63.241498 
L 368.862445 62.729904 
L 369.030475 62.218311 
L 369.031093 61.962514 
L 369.736709 61.195124 
L 369.771365 60.939327 
L 370.04375 60.683531 
L 370.599108 57.613971 
L 371.398133 56.079191 
L 371.658323 55.311801 
L 371.809247 54.800207 
L 372.722831 50.195867 
L 373.076688 49.684274 
L 373.082279 49.428477 
L 373.322492 49.17268 
L 373.435662 48.661087 
L 373.462799 48.40529 
L 373.766582 48.149494 
L 373.780419 47.893697 
L 375.054356 47.126307 
L 375.239081 46.614714 
L 375.808006 46.10312 
L 376.136998 45.847324 
L 376.179688 45.591527 
L 376.941296 45.33573 
L 377.124642 44.824137 
L 377.779535 44.56834 
L 377.891332 43.80095 
L 377.892525 43.545153 
L 378.013047 43.289357 
L 378.924725 43.03356 
L 381.030961 42.777763 
L 381.23084 42.521967 
L 381.397977 42.010373 
L 381.637873 41.754577 
L 384.662835 41.242983 
L 385.024495 40.987187 
L 387.246464 40.73139 
L 392.061857 40.475593 
L 393.756843 40.219797 
L 404.104698 39.964 
L 404.104698 39.964 
" clip-path="url(#pe928a9823f)" style="fill: none; stroke: #d62728; stroke-width: 1.5; stroke-linecap: square"/>
   </g>
   <g id="patch_3">
    <path d="M 47.72 314.728 
L 47.72 26.88 
" style="fill: none; stroke: #000000; stroke-width: 0.8; stroke-linejoin: miter; stroke-linecap: square"/>
   </g>
   <g id="patch_4">
    <path d="M 421.2 314.728 
L 421.2 26.88 
" style="fill: none; stroke: #000000; stroke-width: 0.8; stroke-linejoin: miter; stroke-linecap: square"/>
   </g>
   <g id="patch_5">
    <path d="M 47.72 314.728 
L 421.2 314.728 
" style="fill: none; stroke: #000000; stroke-width: 0.8; stroke-linejoin: miter; stroke-linecap: square"/>
   </g>
   <g id="patch_6">
    <path d="M 47.72 26.88 
L 421.2 26.88 
" style="fill: none; stroke: #000000; stroke-width: 0.8; stroke-linejoin: miter; stroke-linecap: square"/>
   </g>
   <g id="text_16">
    <!-- CDF of Coefficients - Patch 58 -->
    <g transform="translate(145.22125 20.88) scale(0.12 -0.12)">
     <defs>
      <path id="DejaVuSans-2d" d="M 313 2009 
L 1997 2009 
L 1997 1497 
L 313 1497 
L 313 2009 
z
" transform="scale(0.015625)"/>
      <path id="DejaVuSans-50" d="M 1259 4147 
L 1259 2394 
L 2053 2394 
Q 2494 2394 2734 2622 
Q 2975 2850 2975 3272 
Q 2975 3691 2734 3919 
Q 2494 4147 2053 4147 
L 1259 4147 
z
M 628 4666 
L 2053 4666 
Q 2838 4666 3239 4311 
Q 3641 3956 3641 3272 
Q 3641 2581 3239 2228 
Q 2838 1875 2053 1875 
L 1259 1875 
L 1259 0 
L 628 0 
L 628 4666 
z
" transform="scale(0.015625)"/>
      <path id="DejaVuSans-68" d="M 3513 2113 
L 3513 0 
L 2938 0 
L 2938 2094 
Q 2938 2591 2744 2837 
Q 2550 3084 2163 3084 
Q 1697 3084 1428 2787 
Q 1159 2491 1159 1978 
L 1159 0 
L 581 0 
L 581 4863 
L 1159 4863 
L 1159 2956 
Q 1366 3272 1645 3428 
Q 1925 3584 2291 3584 
Q 2894 3584 3203 3211 
Q 3513 2838 3513 2113 
z
" transform="scale(0.015625)"/>
      <path id="DejaVuSans-35" d="M 691 4666 
L 3169 4666 
L 3169 4134 
L 1269 4134 
L 1269 2991 
Q 1406 3038 1543 3061 
Q 1681 3084 1819 3084 
Q 2600 3084 3056 2656 
Q 3513 2228 3513 1497 
Q 3513 744 3044 326 
Q 2575 -91 1722 -91 
Q 1428 -91 1123 -41 
Q 819 9 494 109 
L 494 744 
Q 775 591 1075 516 
Q 1375 441 1709 441 
Q 2250 441 2565 725 
Q 2881 1009 2881 1497 
Q 2881 1984 2565 2268 
Q 2250 2553 1709 2553 
Q 1456 2553 1204 2497 
Q 953 2441 691 2322 
L 691 4666 
z
" transform="scale(0.015625)"/>
     </defs>
     <use xlink:href="#DejaVuSans-43"/>
     <use xlink:href="#DejaVuSans-44" transform="translate(69.824219 0)"/>
     <use xlink:href="#DejaVuSans-46" transform="translate(146.826172 0)"/>
     <use xlink:href="#DejaVuSans-20" transform="translate(204.345703 0)"/>
     <use xlink:href="#DejaVuSans-6f" transform="translate(236.132812 0)"/>
     <use xlink:href="#DejaVuSans-66" transform="translate(297.314453 0)"/>
     <use xlink:href="#DejaVuSans-20" transform="translate(332.519531 0)"/>
     <use xlink:href="#DejaVuSans-43" transform="translate(364.306641 0)"/>
     <use xlink:href="#DejaVuSans-6f" transform="translate(434.130859 0)"/>
     <use xlink:href="#DejaVuSans-65" transform="translate(495.3125 0)"/>
     <use xlink:href="#DejaVuSans-66" transform="translate(556.835938 0)"/>
     <use xlink:href="#DejaVuSans-66" transform="translate(592.041016 0)"/>
     <use xlink:href="#DejaVuSans-69" transform="translate(627.246094 0)"/>
     <use xlink:href="#DejaVuSans-63" transform="translate(655.029297 0)"/>
     <use xlink:href="#DejaVuSans-69" transform="translate(710.009766 0)"/>
     <use xlink:href="#DejaVuSans-65" transform="translate(737.792969 0)"/>
     <use xlink:href="#DejaVuSans-6e" transform="translate(799.316406 0)"/>
     <use xlink:href="#DejaVuSans-74" transform="translate(862.695312 0)"/>
     <use xlink:href="#DejaVuSans-73" transform="translate(901.904297 0)"/>
     <use xlink:href="#DejaVuSans-20" transform="translate(954.003906 0)"/>
     <use xlink:href="#DejaVuSans-2d" transform="translate(985.791016 0)"/>
     <use xlink:href="#DejaVuSans-20" transform="translate(1021.875 0)"/>
     <use xlink:href="#DejaVuSans-50" transform="translate(1053.662109 0)"/>
     <use xlink:href="#DejaVuSans-61" transform="translate(1109.464844 0)"/>
     <use xlink:href="#DejaVuSans-74" transform="translate(1170.744141 0)"/>
     <use xlink:href="#DejaVuSans-63" transform="translate(1209.953125 0)"/>
     <use xlink:href="#DejaVuSans-68" transform="translate(1264.933594 0)"/>
     <use xlink:href="#DejaVuSans-20" transform="translate(1328.3125 0)"/>
     <use xlink:href="#DejaVuSans-35" transform="translate(1360.099609 0)"/>
     <use xlink:href="#DejaVuSans-38" transform="translate(1423.722656 0)"/>
    </g>
   </g>
   <g id="legend_1">
    <g id="patch_7">
     <path d="M 168.674062 309.728 
L 300.245937 309.728 
Q 302.245937 309.728 302.245937 307.728 
L 302.245937 250.0155 
Q 302.245937 248.0155 300.245937 248.0155 
L 168.674062 248.0155 
Q 166.674062 248.0155 166.674062 250.0155 
L 166.674062 307.728 
Q 166.674062 309.728 168.674062 309.728 
z
" style="fill: #ffffff; opacity: 0.8; stroke: #cccccc; stroke-linejoin: miter"/>
    </g>
    <g id="line2d_31">
     <path d="M 170.674062 256.113937 
L 180.674062 256.113937 
L 190.674062 256.113937 
" style="fill: none; stroke: #1f77b4; stroke-width: 1.5; stroke-linecap: square"/>
    </g>
    <g id="text_17">
     <!-- True -->
     <g transform="translate(198.674062 259.613937) scale(0.1 -0.1)">
      <defs>
       <path id="DejaVuSans-54" d="M -19 4666 
L 3928 4666 
L 3928 4134 
L 2272 4134 
L 2272 0 
L 1638 0 
L 1638 4134 
L -19 4134 
L -19 4666 
z
" transform="scale(0.015625)"/>
       <path id="DejaVuSans-72" d="M 2631 2963 
Q 2534 3019 2420 3045 
Q 2306 3072 2169 3072 
Q 1681 3072 1420 2755 
Q 1159 2438 1159 1844 
L 1159 0 
L 581 0 
L 581 3500 
L 1159 3500 
L 1159 2956 
Q 1341 3275 1631 3429 
Q 1922 3584 2338 3584 
Q 2397 3584 2469 3576 
Q 2541 3569 2628 3553 
L 2631 2963 
z
" transform="scale(0.015625)"/>
      </defs>
      <use xlink:href="#DejaVuSans-54"/>
      <use xlink:href="#DejaVuSans-72" transform="translate(46.333984 0)"/>
      <use xlink:href="#DejaVuSans-75" transform="translate(87.447266 0)"/>
      <use xlink:href="#DejaVuSans-65" transform="translate(150.826172 0)"/>
     </g>
    </g>
    <g id="line2d_32">
     <path d="M 170.674062 270.792062 
L 180.674062 270.792062 
L 190.674062 270.792062 
" style="fill: none; stroke: #ff7f0e; stroke-width: 1.5; stroke-linecap: square"/>
    </g>
    <g id="text_18">
     <!-- V1 Estimated -->
     <g transform="translate(198.674062 274.292062) scale(0.1 -0.1)">
      <defs>
       <path id="DejaVuSans-45" d="M 628 4666 
L 3578 4666 
L 3578 4134 
L 1259 4134 
L 1259 2753 
L 3481 2753 
L 3481 2222 
L 1259 2222 
L 1259 531 
L 3634 531 
L 3634 0 
L 628 0 
L 628 4666 
z
" transform="scale(0.015625)"/>
       <path id="DejaVuSans-6d" d="M 3328 2828 
Q 3544 3216 3844 3400 
Q 4144 3584 4550 3584 
Q 5097 3584 5394 3201 
Q 5691 2819 5691 2113 
L 5691 0 
L 5113 0 
L 5113 2094 
Q 5113 2597 4934 2840 
Q 4756 3084 4391 3084 
Q 3944 3084 3684 2787 
Q 3425 2491 3425 1978 
L 3425 0 
L 2847 0 
L 2847 2094 
Q 2847 2600 2669 2842 
Q 2491 3084 2119 3084 
Q 1678 3084 1418 2786 
Q 1159 2488 1159 1978 
L 1159 0 
L 581 0 
L 581 3500 
L 1159 3500 
L 1159 2956 
Q 1356 3278 1631 3431 
Q 1906 3584 2284 3584 
Q 2666 3584 2933 3390 
Q 3200 3197 3328 2828 
z
" transform="scale(0.015625)"/>
       <path id="DejaVuSans-64" d="M 2906 2969 
L 2906 4863 
L 3481 4863 
L 3481 0 
L 2906 0 
L 2906 525 
Q 2725 213 2448 61 
Q 2172 -91 1784 -91 
Q 1150 -91 751 415 
Q 353 922 353 1747 
Q 353 2572 751 3078 
Q 1150 3584 1784 3584 
Q 2172 3584 2448 3432 
Q 2725 3281 2906 2969 
z
M 947 1747 
Q 947 1113 1208 752 
Q 1469 391 1925 391 
Q 2381 391 2643 752 
Q 2906 1113 2906 1747 
Q 2906 2381 2643 2742 
Q 2381 3103 1925 3103 
Q 1469 3103 1208 2742 
Q 947 2381 947 1747 
z
" transform="scale(0.015625)"/>
      </defs>
      <use xlink:href="#DejaVuSans-56"/>
      <use xlink:href="#DejaVuSans-31" transform="translate(68.408203 0)"/>
      <use xlink:href="#DejaVuSans-20" transform="translate(132.03125 0)"/>
      <use xlink:href="#DejaVuSans-45" transform="translate(163.818359 0)"/>
      <use xlink:href="#DejaVuSans-73" transform="translate(227.001953 0)"/>
      <use xlink:href="#DejaVuSans-74" transform="translate(279.101562 0)"/>
      <use xlink:href="#DejaVuSans-69" transform="translate(318.310547 0)"/>
      <use xlink:href="#DejaVuSans-6d" transform="translate(346.09375 0)"/>
      <use xlink:href="#DejaVuSans-61" transform="translate(443.505859 0)"/>
      <use xlink:href="#DejaVuSans-74" transform="translate(504.785156 0)"/>
      <use xlink:href="#DejaVuSans-65" transform="translate(543.994141 0)"/>
      <use xlink:href="#DejaVuSans-64" transform="translate(605.517578 0)"/>
     </g>
    </g>
    <g id="line2d_33">
     <path d="M 170.674062 285.470187 
L 180.674062 285.470187 
L 190.674062 285.470187 
" style="fill: none; stroke: #2ca02c; stroke-width: 1.5; stroke-linecap: square"/>
    </g>
    <g id="text_19">
     <!-- Pixel Estimated -->
     <g transform="translate(198.674062 288.970187) scale(0.1 -0.1)">
      <defs>
       <path id="DejaVuSans-78" d="M 3513 3500 
L 2247 1797 
L 3578 0 
L 2900 0 
L 1881 1375 
L 863 0 
L 184 0 
L 1544 1831 
L 300 3500 
L 978 3500 
L 1906 2253 
L 2834 3500 
L 3513 3500 
z
" transform="scale(0.015625)"/>
      </defs>
      <use xlink:href="#DejaVuSans-50"/>
      <use xlink:href="#DejaVuSans-69" transform="translate(58.052734 0)"/>
      <use xlink:href="#DejaVuSans-78" transform="translate(85.835938 0)"/>
      <use xlink:href="#DejaVuSans-65" transform="translate(141.890625 0)"/>
      <use xlink:href="#DejaVuSans-6c" transform="translate(203.414062 0)"/>
      <use xlink:href="#DejaVuSans-20" transform="translate(231.197266 0)"/>
      <use xlink:href="#DejaVuSans-45" transform="translate(262.984375 0)"/>
      <use xlink:href="#DejaVuSans-73" transform="translate(326.167969 0)"/>
      <use xlink:href="#DejaVuSans-74" transform="translate(378.267578 0)"/>
      <use xlink:href="#DejaVuSans-69" transform="translate(417.476562 0)"/>
      <use xlink:href="#DejaVuSans-6d" transform="translate(445.259766 0)"/>
      <use xlink:href="#DejaVuSans-61" transform="translate(542.671875 0)"/>
      <use xlink:href="#DejaVuSans-74" transform="translate(603.951172 0)"/>
      <use xlink:href="#DejaVuSans-65" transform="translate(643.160156 0)"/>
      <use xlink:href="#DejaVuSans-64" transform="translate(704.683594 0)"/>
     </g>
    </g>
    <g id="line2d_34">
     <path d="M 170.674062 300.148312 
L 180.674062 300.148312 
L 190.674062 300.148312 
" style="fill: none; stroke: #d62728; stroke-width: 1.5; stroke-linecap: square"/>
    </g>
    <g id="text_20">
     <!-- Gaussian Estimated -->
     <g transform="translate(198.674062 303.648312) scale(0.1 -0.1)">
      <defs>
       <path id="DejaVuSans-47" d="M 3809 666 
L 3809 1919 
L 2778 1919 
L 2778 2438 
L 4434 2438 
L 4434 434 
Q 4069 175 3628 42 
Q 3188 -91 2688 -91 
Q 1594 -91 976 548 
Q 359 1188 359 2328 
Q 359 3472 976 4111 
Q 1594 4750 2688 4750 
Q 3144 4750 3555 4637 
Q 3966 4525 4313 4306 
L 4313 3634 
Q 3963 3931 3569 4081 
Q 3175 4231 2741 4231 
Q 1884 4231 1454 3753 
Q 1025 3275 1025 2328 
Q 1025 1384 1454 906 
Q 1884 428 2741 428 
Q 3075 428 3337 486 
Q 3600 544 3809 666 
z
" transform="scale(0.015625)"/>
      </defs>
      <use xlink:href="#DejaVuSans-47"/>
      <use xlink:href="#DejaVuSans-61" transform="translate(77.490234 0)"/>
      <use xlink:href="#DejaVuSans-75" transform="translate(138.769531 0)"/>
      <use xlink:href="#DejaVuSans-73" transform="translate(202.148438 0)"/>
      <use xlink:href="#DejaVuSans-73" transform="translate(254.248047 0)"/>
      <use xlink:href="#DejaVuSans-69" transform="translate(306.347656 0)"/>
      <use xlink:href="#DejaVuSans-61" transform="translate(334.130859 0)"/>
      <use xlink:href="#DejaVuSans-6e" transform="translate(395.410156 0)"/>
      <use xlink:href="#DejaVuSans-20" transform="translate(458.789062 0)"/>
      <use xlink:href="#DejaVuSans-45" transform="translate(490.576172 0)"/>
      <use xlink:href="#DejaVuSans-73" transform="translate(553.759766 0)"/>
      <use xlink:href="#DejaVuSans-74" transform="translate(605.859375 0)"/>
      <use xlink:href="#DejaVuSans-69" transform="translate(645.068359 0)"/>
      <use xlink:href="#DejaVuSans-6d" transform="translate(672.851562 0)"/>
      <use xlink:href="#DejaVuSans-61" transform="translate(770.263672 0)"/>
      <use xlink:href="#DejaVuSans-74" transform="translate(831.542969 0)"/>
      <use xlink:href="#DejaVuSans-65" transform="translate(870.751953 0)"/>
      <use xlink:href="#DejaVuSans-64" transform="translate(932.275391 0)"/>
     </g>
    </g>
   </g>
  </g>
 </g>
 <defs>
  <clipPath id="pe928a9823f">
   <rect x="47.72" y="26.88" width="373.48" height="287.848"/>
  </clipPath>
 </defs>
</svg>
